<?xml version="1.0" standalone="no"?>
<!DOCTYPE svg PUBLIC "-//W3C//DTD SVG 20010904//EN"
 "http://www.w3.org/TR/2001/REC-SVG-20010904/DTD/svg10.dtd">
<svg version="1.0" xmlns="http://www.w3.org/2000/svg"
 width="660.000000pt" height="660.000000pt" viewBox="0 0 660.000000 660.000000"
 preserveAspectRatio="xMidYMid meet">
<metadata>
Created by potrace 1.14, written by Peter Selinger 2001-2017
</metadata>
<g transform="translate(0.000000,660.000000) scale(0.100000,-0.100000)"
fill="#000000" stroke="none">
<path d="M2868 6495 c-2 -2 -33 -5 -70 -9 -328 -31 -682 -216 -967 -506 -422
-429 -728 -1119 -816 -1845 -4 -27 -8 -61 -10 -74 -2 -13 -7 -65 -11 -115 -3
-50 -7 -109 -9 -131 -6 -57 -6 -410 0 -475 2 -30 7 -89 10 -130 6 -79 23 -227
31 -270 2 -14 6 -41 9 -60 3 -19 7 -46 10 -60 3 -14 8 -41 11 -60 3 -19 13
-62 21 -95 8 -33 17 -69 19 -79 37 -188 155 -517 265 -736 136 -271 291 -492
479 -681 154 -155 280 -252 440 -336 244 -128 443 -175 715 -168 83 2 162 6
178 9 15 3 37 8 50 10 174 30 394 123 566 239 l74 49 49 -53 c142 -156 267
-404 333 -664 10 -38 18 -78 17 -87 0 -10 6 -18 14 -18 12 0 14 12 12 59 -2
32 -6 57 -9 56 -3 -2 -11 24 -18 58 -51 235 -166 480 -302 638 -43 51 -46 56
-29 67 15 9 27 1 83 -56 142 -145 246 -315 256 -422 5 -49 6 -51 11 -21 5 32
8 26 44 -74 21 -60 40 -118 42 -129 8 -40 22 -81 23 -65 2 36 -56 241 -98 346
-11 29 -29 107 -41 175 -11 68 -39 198 -61 290 -35 142 -40 169 -28 181 16 16
88 102 106 126 10 14 13 12 23 -14 22 -58 82 -230 95 -275 7 -25 23 -76 35
-115 29 -97 26 -85 65 -245 34 -137 60 -266 71 -355 3 -22 9 -65 14 -95 9 -53
9 -52 4 17 -5 69 -7 89 -20 163 -3 19 -8 51 -10 70 -3 19 -14 78 -25 130 -11
52 -23 106 -25 120 -16 84 -140 500 -183 613 -10 24 -5 36 49 117 33 49 75
114 93 144 18 30 78 102 133 159 54 57 109 115 121 130 426 508 709 1118 818
1760 13 78 27 180 30 227 4 47 8 100 10 119 2 24 14 45 39 68 53 50 70 89 69
158 0 67 -17 107 -82 194 -25 33 -41 65 -41 82 0 15 -3 34 -6 42 -3 10 11 32
36 59 79 82 112 174 112 308 -1 102 -21 201 -61 304 -58 144 -129 252 -200
305 -34 25 -36 29 -38 88 -3 123 -62 279 -146 393 -136 183 -348 269 -557 226
-95 -20 -235 -89 -323 -160 l-68 -54 -152 5 -152 6 -70 57 c-238 196 -510 318
-790 356 -47 6 -262 13 -267 9z m250 -259 c17 -3 47 -8 65 -11 62 -11 202 -57
277 -93 105 -49 105 -50 74 -81 -14 -14 -34 -42 -44 -61 -16 -31 -32 -42 -119
-79 -638 -273 -1229 -919 -1562 -1711 -92 -221 -201 -581 -224 -745 -3 -23 -7
-52 -10 -65 -3 -14 -7 -47 -11 -75 -3 -27 -7 -52 -9 -55 -16 -27 -24 -460 -11
-610 65 -746 419 -1302 969 -1521 57 -23 165 -55 217 -64 18 -3 36 -7 39 -9
12 -8 169 -20 256 -20 85 1 138 5 245 20 42 6 207 47 307 76 30 8 46 9 53 2
16 -16 -143 -106 -270 -153 -140 -51 -233 -66 -405 -66 -132 0 -217 9 -264 27
-14 5 -28 9 -31 9 -3 -1 -32 8 -65 18 -325 105 -638 374 -875 750 -121 192
-227 420 -304 652 -33 102 -80 266 -90 319 -3 14 -12 61 -21 105 -26 128 -52
308 -61 420 -3 39 -7 88 -9 110 -5 45 -5 425 -1 495 6 88 17 196 27 270 5 41
12 91 15 110 2 19 9 58 14 85 5 28 12 61 14 75 46 258 170 620 296 865 297
577 704 924 1185 1009 71 12 273 14 333 2z m1810 -62 c193 -64 347 -268 368
-488 l6 -61 -54 -3 c-29 -1 -68 -7 -86 -13 -33 -11 -35 -10 -115 68 -160 156
-343 268 -542 331 l-89 29 49 36 c153 110 323 147 463 101z m-1268 -158 c0 -2
-7 -7 -16 -10 -8 -3 -12 -2 -9 4 6 10 25 14 25 6z m1624 -528 c-8 -24 -17 -49
-19 -57 -4 -10 -13 -4 -30 20 -13 19 -30 40 -36 48 -17 19 5 31 58 31 l42 0
-15 -42z m219 -172 c113 -225 130 -422 49 -551 l-26 -40 -32 125 c-37 146 -70
239 -130 369 -48 102 -51 116 -29 145 7 10 22 43 31 74 l18 55 37 -43 c20 -23
57 -84 82 -134z m80 -1026 c2 -14 1 -34 -3 -45 -5 -14 -9 -5 -11 32 -4 52 6
61 14 13z m-1402 -3280 c22 -85 42 -171 45 -190 3 -19 9 -50 14 -67 5 -18 7
-33 4 -33 -2 0 -11 15 -20 33 -32 63 -125 193 -182 255 l-58 64 71 68 c82 81
69 95 126 -130z"/>
<path d="M4270 476 c0 -8 5 -18 10 -21 6 -3 10 1 10 9 0 8 -4 18 -10 21 -5 3
-10 -1 -10 -9z"/>
<path d="M4282 420 c0 -14 2 -19 5 -12 2 6 2 18 0 25 -3 6 -5 1 -5 -13z"/>
<path d="M4282 365 c0 -16 2 -22 5 -12 2 9 2 23 0 30 -3 6 -5 -1 -5 -18z"/>
<path d="M4570 200 c0 -5 5 -10 10 -10 6 0 10 5 10 10 0 6 -4 10 -10 10 -5 0
-10 -4 -10 -10z"/>
<path d="M4581 154 c0 -11 3 -14 6 -6 3 7 2 16 -1 19 -3 4 -6 -2 -5 -13z"/>
<path d="M4582 110 c0 -14 2 -19 5 -12 2 6 2 18 0 25 -3 6 -5 1 -5 -13z"/>
</g>
</svg>
